<svg width="702" height="195" viewBox="0 0 702 195" fill="none" xmlns="http://www.w3.org/2000/svg">
<path d="M701.2 97.3002C701.4 91.3002 699.2 85.3002 694.7 80.9002L619.8 6.40022C611.2 -2.19979 597.3 -2.09978 588.7 6.50022C580.1 15.1002 580.2 29.0002 588.8 37.6002L625.9 74.6002H22C9.8 74.6002 0 84.4002 0 96.6002C0 108.8 9.8 118.6 22 118.6H627.4L589.1 156.9C580.5 165.5 580.5 179.4 589.1 188C593.4 192.3 599 194.4 604.7 194.4C610.3 194.4 616 192.3 620.3 188L694.8 113.5C699.2 109 701.3 103.1 701.2 97.3002Z" fill="#535a77"/>
</svg>
