<svg width="134" height="150" viewBox="0 0 134 150" fill="none" xmlns="http://www.w3.org/2000/svg">
<path d="M88.6646 54.0369C86.1474 50.6208 82.8473 47.8584 79.0415 45.9818C78.9964 46.1869 78.9663 46.395 78.9515 46.6045C78.9414 47.1432 78.7945 47.6704 78.5246 48.1367C78.2803 48.4798 77.968 48.769 77.6072 48.9863C77.2463 49.2037 76.8447 49.3445 76.4272 49.4001C78.4372 50.8987 80.0962 52.8176 81.2885 55.0231C81.6022 55.5155 81.9179 56.0105 82.2449 56.4976C84.2097 59.177 85.3839 62.3535 85.634 65.6667C85.7483 66.8561 85.9442 68.0363 86.2204 69.1989C86.7618 71.7469 87.3217 74.3817 86.2456 76.5638C85.0774 78.9338 82.5545 80.3117 80.115 81.644C79.1838 82.1523 78.3042 82.6327 77.5286 83.1529C76.8747 83.5917 76.2142 84.0974 75.5371 84.6143C73.3881 86.2563 70.9526 88.1167 68.0868 88.308C67.9174 88.3192 67.748 88.3245 67.5799 88.3245C64.8832 88.0762 62.2928 87.1518 60.0482 85.6368C59.35 85.2463 58.6677 84.8645 58.0018 84.5362C54.9077 83.0106 53.1645 80.407 51.3186 77.6505L51.1115 77.3407C50.7587 76.8159 50.3874 76.2997 50.0155 75.7835C48.1646 73.6632 46.9707 71.0502 46.5792 68.2631C46.3439 64.7369 47.0417 61.2111 48.6024 58.0404C50.0922 55.0192 52.8521 53.1759 55.5206 51.3936L56.0349 51.0494C58.7863 49.1005 62.0251 47.9546 65.3899 47.7396C65.622 47.7241 65.8513 47.7114 66.0821 47.6972C66.0149 46.5403 65.6229 45.4257 64.9511 44.4814C64.877 44.3861 64.8049 44.2835 64.7327 44.1796C64.5898 43.9751 64.3939 43.6952 64.2681 43.6687C64.0257 43.6174 63.7786 43.5917 63.5308 43.5919C61.503 43.5919 59.542 45.2789 57.6392 46.9163C56.8465 47.6276 56.0132 48.2923 55.1434 48.9071C51.6207 50.9964 48.688 53.9483 46.6216 57.4844L46.4317 57.8703C44.7275 61.3184 42.6063 65.6104 42.8724 69.6106C43.063 72.4809 45.116 74.9543 47.1021 77.3467C47.9207 78.2976 48.6908 79.2892 49.4093 80.3177C50.1089 81.3594 50.7481 82.5534 51.3663 83.7083C52.8303 86.4416 54.3439 89.2683 56.802 90.4809C59.634 91.8767 63.7803 92.3737 69.488 91.9911C72.1486 91.8144 74.1142 89.956 76.1957 87.9884C77.2048 86.9804 78.2944 86.0565 79.4538 85.2259C82.6607 83.3656 85.2667 80.6247 86.963 77.3282C88.378 74.4578 88.1609 71.9058 87.8856 68.6747C87.83 68.0215 87.7724 67.3418 87.7248 66.6283C87.7143 64.7116 87.9955 62.8045 88.5587 60.9723C89.2238 58.3164 89.8519 55.8073 88.6646 54.0369Z" fill="#F6EB7D"/>
<path d="M74.374 48.4386C74.1977 48.1387 74.0583 47.8187 73.9586 47.4854C73.9026 47.1879 73.7721 46.9094 73.5794 46.676C73.5106 46.6195 73.4262 46.5855 73.3375 46.5788C73.2487 46.572 73.1601 46.5928 73.0836 46.6383C72.8691 46.7348 72.6817 46.8831 72.5384 47.0697C72.3951 47.2563 72.3002 47.4755 72.2623 47.7078C72.2571 47.7646 72.2667 47.8225 72.2659 47.8796C72.9833 48.0052 73.6886 48.1922 74.374 48.4386V48.4386Z" fill="#F6EB7D"/>
<path d="M96.5289 136.359C98.345 136.092 98.8559 133.501 98.6381 131.747C98.5495 131.036 98.4052 130.332 98.2615 129.628C98.028 128.608 97.87 127.572 97.789 126.529C97.7183 125.473 97.8657 124.413 98.2218 123.416L98.2033 123.341L98.2617 123.326C98.5686 122.504 99.0875 121.777 99.7659 121.22C100.61 120.624 101.555 120.186 102.555 119.927C103.61 119.726 104.573 119.19 105.3 118.399C105.435 118.19 105.554 117.971 105.657 117.745C105.892 117.109 106.313 116.559 106.866 116.167C107.419 115.775 108.077 115.559 108.755 115.547C109.039 115.498 109.32 115.435 109.597 115.358C110.317 115.091 110.964 114.661 111.486 114.1C112.009 113.538 112.394 112.863 112.609 112.127C112.736 111.683 112.805 111.225 112.813 110.764C112.821 110.112 112.94 109.467 113.164 108.855C113.242 108.682 113.366 108.534 113.523 108.427C115.293 106.411 115.623 103.103 115.942 99.9033C116.038 97.3233 116.58 94.7793 117.542 92.3836C119.522 87.9541 120.888 83.2749 121.602 78.4758L121.657 78.1912C122.071 76.3232 122.611 74.4853 123.272 72.69C124.512 69.738 125.149 66.5684 125.148 63.3668C124.729 60.2612 123.645 57.2826 121.97 54.6339C120.988 52.9017 120.147 51.0935 119.454 49.2267C116.366 39.8993 110.749 31.6121 103.23 25.2875C101.554 23.6612 100.107 21.8137 98.9306 19.7963C97.196 17.1178 95.5573 14.5876 93.0171 13.3348C89.97 12.0857 86.7173 11.4136 83.4246 11.3526C81.5024 11.2231 79.5887 10.9895 77.6918 10.6531C72.7362 9.79115 67.6881 9.59195 62.68 10.0607C60.0498 10.0427 57.441 9.58502 54.9617 8.70661C51.7452 7.77674 48.7067 6.89849 46.2169 7.74497C43.5835 8.63977 41.5635 11.3599 39.6092 13.9907C38.2273 16.1011 36.5097 17.9714 34.5243 19.5276C32.0317 21.4161 29.9315 23.7728 28.3415 26.4656C27.318 28.0271 26.2015 29.5256 24.9979 30.9528C23.3148 32.6599 21.3759 34.0943 19.2512 35.2044C16.5337 36.8154 13.9671 38.3369 12.7394 40.8261C11.5392 43.7879 10.9357 46.9576 10.9637 50.1533C10.8827 52.1634 10.6696 54.166 10.3257 56.1482C9.86849 59.3491 9.97015 62.6051 10.6262 65.7712C10.8691 67.4311 11.1199 69.1472 11.239 70.9395C11.1893 73.6281 10.6029 76.2797 9.51429 78.7385C8.41299 81.8002 7.37259 84.6917 8.19525 87.1134C10.0731 92.1366 12.5988 96.893 15.7084 101.262C16.4573 102.139 17.4315 102.795 18.5258 103.158C19.748 103.619 20.8663 104.319 21.8158 105.216C22.3264 105.864 22.5863 106.674 22.5477 107.499C22.5636 107.728 22.5782 107.955 22.6113 108.167C22.8834 110.249 23.006 112.348 22.9779 114.447C22.9938 115.991 23.0097 117.588 23.1553 119.134C23.2215 119.833 23.4842 121.484 24.4935 121.715C24.6582 121.749 24.8286 121.742 24.9899 121.695C25.1511 121.647 25.2984 121.561 25.4188 121.444C25.6851 121.193 25.8942 120.888 26.0318 120.549C26.1695 120.21 26.2324 119.845 26.2163 119.48C26.1137 118.653 25.8873 117.847 25.5445 117.088C25.3 116.497 25.096 115.89 24.9337 115.271C24.6284 114.393 24.6638 113.432 25.0328 112.579C25.4018 111.726 26.0776 111.042 26.9264 110.663C27.7646 110.482 28.6386 110.568 29.4255 110.908C29.9069 111.023 30.3584 111.239 30.7504 111.541C31.1423 111.843 31.4658 112.225 31.6996 112.661C31.8808 113.181 31.946 113.734 31.8909 114.282C31.8306 114.663 31.88 115.053 32.0332 115.407C32.2516 115.738 32.8049 115.881 33.7261 115.834C34.2391 115.81 34.7943 115.784 35.3629 115.784C37.3358 115.784 39.4675 116.095 40.541 117.881C40.7558 118.263 40.9306 118.667 41.0626 119.085C41.1788 119.495 41.3624 119.884 41.6059 120.235C42.108 120.714 42.7284 121.051 43.4035 121.211C43.6649 121.302 43.925 121.393 44.1758 121.496C45.4555 122.093 46.5914 122.959 47.5063 124.035C48.4213 125.111 49.0937 126.371 49.4778 127.73C50.1992 130.321 50.5414 133.002 50.4938 135.691L50.7558 144.507C50.8498 147.665 51.6453 149.499 53.1199 149.96C53.8921 150.08 54.6817 149.927 55.3538 149.529C56.0258 149.13 56.5386 148.51 56.8043 147.776C57.3516 146.068 57.4812 144.255 57.1823 142.487L56.3828 133.296C56.1267 131.798 56.2804 130.259 56.8275 128.842C57.2801 127.933 58.0734 127.239 59.0347 126.912C59.3851 126.79 59.7566 126.742 60.1265 126.769C60.4964 126.796 60.8568 126.898 61.1857 127.07C61.8127 127.536 62.3073 128.158 62.6207 128.874C62.934 129.591 63.0553 130.376 62.9726 131.153L63.2631 137.338C63.2029 138.469 63.4558 139.595 63.9938 140.592C64.154 140.818 64.3575 141.01 64.5925 141.156C64.8275 141.302 65.0892 141.4 65.3625 141.444C65.5163 141.472 65.6745 141.468 65.8266 141.431C65.9787 141.395 66.1214 141.326 66.2453 141.231C66.5147 140.96 66.7161 140.629 66.833 140.265C67.603 138.333 67.8387 136.23 67.5154 134.176L67.4333 133.687C67.0887 132.518 67.1648 131.266 67.6484 130.149C68.5862 128.478 70.4963 128.396 72.1813 128.324C73.1913 128.353 74.1973 128.186 75.1437 127.831C75.6303 127.563 76.0793 127.231 76.4792 126.845C77.0737 126.221 77.8049 125.743 78.6153 125.45C79.4256 125.157 80.293 125.056 81.1491 125.155C81.734 125.167 82.3187 125.125 82.8957 125.029C83.8051 124.786 84.6778 124.423 85.4907 123.948C86.1869 123.449 86.9779 123.097 87.8152 122.914C88.6524 122.731 89.5181 122.722 90.3592 122.886C91.3342 123.333 92.1544 124.059 92.7157 124.973C93.2771 125.887 93.5543 126.947 93.5122 128.019C93.5322 128.772 93.5134 129.525 93.456 130.276C93.3431 131.351 93.3675 132.436 93.5288 133.504C93.8346 135.052 95.1284 136.56 96.5289 136.359ZM113.809 71.9748C113.961 71.3539 114.208 70.76 114.54 70.2139C114.916 69.5895 115.42 69.0516 116.019 68.6354C116.358 69.2806 116.558 69.9903 116.604 70.7178C116.647 71.3557 116.592 71.9965 116.441 72.6177C116.292 73.2393 116.046 73.8338 115.713 74.3796C115.337 75.0051 114.832 75.5429 114.231 75.9572C113.889 75.3126 113.688 74.6024 113.643 73.874C113.599 73.2362 113.655 72.5954 113.809 71.9748V71.9748ZM31.1646 29.5604C31.3669 28.9058 31.6619 28.2836 32.0406 27.7126C32.4176 27.1406 32.8761 26.6267 33.4015 26.1871C33.9886 25.6881 34.6719 25.3151 35.4092 25.0912C35.4885 25.8576 35.4094 26.6321 35.1769 27.3667C34.9752 28.0214 34.679 28.6432 34.2978 29.2124C33.9182 29.7828 33.4589 30.2958 32.9338 30.7359C32.3468 31.2338 31.6648 31.6073 30.9292 31.8338C30.853 31.0678 30.933 30.2944 31.1646 29.5604ZM30.3009 40.5323C30.9903 40.3704 31.6988 40.3049 32.4061 40.3375C33.1136 40.368 33.8131 40.4982 34.4841 40.7243C35.2359 40.9708 35.9303 41.3662 36.5259 41.8868C35.8843 42.3496 35.156 42.6783 34.3845 42.8535C33.6953 43.016 32.9866 43.0803 32.2794 43.0446C31.5721 43.0111 30.8728 42.8797 30.2016 42.6542C29.4508 42.4071 28.7567 42.0132 28.1597 41.4953C28.8025 41.0354 29.5304 40.708 30.3009 40.5323H30.3009ZM36.3435 76.2072C35.7044 76.2628 35.0611 76.1693 34.4643 75.9339C33.964 75.7379 33.5044 75.4508 33.1088 75.0873C32.713 74.7238 32.3868 74.2913 32.146 73.8109C31.8588 73.2383 31.7069 72.6073 31.7019 71.9667C32.3404 71.9138 32.9825 72.0082 33.5787 72.2426C34.0788 72.4392 34.539 72.7252 34.9367 73.0865C35.3344 73.4478 35.6617 73.8796 35.902 74.3602C36.1902 74.9334 36.3413 75.5656 36.3435 76.2072V76.2072ZM27.5801 50.8876C28.3001 50.963 29.0062 51.1375 29.6784 51.4062C30.3515 51.6727 30.9854 52.0293 31.5626 52.4662C32.2074 52.9475 32.7515 53.5506 33.1639 54.2414C32.3905 54.4634 31.5811 54.5314 30.7815 54.4415C30.0615 54.3655 29.3552 54.1921 28.6818 53.9263C28.0077 53.6626 27.3731 53.307 26.7963 52.8697C26.1504 52.3886 25.6065 51.784 25.1962 51.091C25.9695 50.8659 26.7799 50.7967 27.5801 50.8875V50.8876ZM15.2694 50.2701C15.5092 49.3454 15.9049 48.4684 16.4396 47.6768C16.9072 48.5098 17.2292 49.4164 17.3918 50.3578C17.5506 51.2314 17.6123 52.1199 17.5755 53.0071C17.542 53.8944 17.4084 54.775 17.1775 55.6324C16.9385 56.5579 16.5414 57.4352 16.0037 58.2256C15.5331 57.3936 15.2097 56.4865 15.0478 55.5443C14.8885 54.6709 14.8281 53.7822 14.8679 52.8952C14.9044 52.008 15.039 51.1276 15.2693 50.27L15.2694 50.2701ZM17.2509 93.6741C16.61 93.2765 16.0247 92.7957 15.5102 92.2442C14.9939 91.6945 14.5514 91.0798 14.1939 90.4158C13.7941 89.686 13.5375 88.8865 13.438 88.0604C14.2563 88.2111 15.0383 88.5168 15.7419 88.961C16.3824 89.3592 16.9684 89.839 17.4851 90.3884C18.0036 90.936 18.4472 91.5501 18.8042 92.2144C19.205 92.9443 19.4608 93.745 19.5573 94.5722C18.7378 94.4244 17.9545 94.1194 17.2508 93.6741L17.2509 93.6741ZM21.5107 74.5663C21.2816 75.0886 20.963 75.5667 20.5692 75.9793C20.1759 76.3922 19.7145 76.7346 19.2054 76.9915C18.6087 77.2938 17.952 77.4588 17.2834 77.4744C17.2637 76.8059 17.3938 76.1414 17.6641 75.5296C17.8938 75.0076 18.2114 74.5288 18.603 74.1142C18.9941 73.6992 19.4548 73.3558 19.9642 73.0994C20.5613 72.7961 21.2193 72.6319 21.8888 72.6191C21.9114 73.2884 21.7821 73.9541 21.5107 74.5663V74.5663ZM23.3976 65.0756C22.8718 64.6448 22.4111 64.1404 22.0296 63.5779C21.5966 62.9474 21.2968 62.2353 21.1486 61.4849C21.9134 61.4816 22.6708 61.6344 23.3746 61.9338C24.0015 62.1964 24.5872 62.5481 25.1136 62.978C25.6411 63.4065 26.1029 63.9101 26.484 64.4729C26.918 65.1036 27.2171 65.817 27.3625 66.5687C26.597 66.575 25.8384 66.4231 25.1342 66.1227C24.5072 65.8606 23.922 65.5078 23.3976 65.0756V65.0756ZM30.2612 87.3263C29.5035 87.3551 28.7453 87.2839 28.0062 87.1144C27.2666 86.9474 26.5517 86.6853 25.8793 86.3347C25.1355 85.9536 24.4711 85.4343 23.9216 84.8045C24.6882 84.4715 25.5112 84.2875 26.3466 84.2624C27.1043 84.2342 27.8625 84.3042 28.6023 84.4708C29.3425 84.6348 30.0579 84.8958 30.7299 85.2469C31.4748 85.6276 32.1392 86.1483 32.6868 86.7806C31.9209 87.1168 31.0973 87.3021 30.2612 87.3263V87.3263ZM36.6435 99.837C36.4159 100.332 36.0998 100.78 35.7107 101.161C35.3217 101.542 34.8674 101.85 34.3695 102.07C33.7783 102.332 33.135 102.456 32.4888 102.432C32.4746 101.785 32.6082 101.144 32.8793 100.557C33.1075 100.062 33.4225 99.6129 33.8096 99.2299C34.1964 98.8468 34.65 98.5377 35.1481 98.318C35.7399 98.0551 36.3845 97.9324 37.0315 97.9595C37.0485 98.6069 36.9157 99.2494 36.6435 99.837H36.6435ZM39.9656 57.0414C39.8162 57.663 39.5706 58.2574 39.2377 58.8032C38.8617 59.4287 38.3563 59.9666 37.7554 60.3808C37.413 59.7363 37.2124 59.026 37.167 58.2975C37.1231 57.6598 37.179 57.0191 37.333 56.3986C37.4853 55.7776 37.732 55.1837 38.0644 54.6376C38.4407 54.0132 38.9446 53.4753 39.5431 53.0591C39.8826 53.7043 40.0819 54.414 40.128 55.1416C40.1713 55.7794 40.1166 56.4201 39.9657 57.0414H39.9656ZM99.9121 101.487C99.4258 101.386 98.9647 101.187 98.5562 100.905C98.148 100.621 97.7994 100.26 97.5304 99.8423C97.2031 99.3313 97.0012 98.7503 96.9411 98.1465C97.5267 97.9875 98.1415 97.9691 98.7355 98.093C99.2218 98.1954 99.6833 98.3924 100.094 98.6728C100.503 98.9538 100.853 99.314 101.121 99.7322C101.45 100.243 101.651 100.826 101.709 101.431C101.123 101.593 100.507 101.612 99.9121 101.487ZM112.443 93.1835C112.247 93.5636 111.965 93.8931 111.62 94.1462C111.274 94.3969 110.874 94.5656 110.453 94.6395C109.91 94.731 109.353 94.6874 108.831 94.5128C108.821 93.9622 108.946 93.4176 109.196 92.927C109.393 92.5471 109.674 92.2169 110.017 91.9614C110.362 91.7082 110.761 91.5383 111.182 91.465C111.726 91.3729 112.284 91.4175 112.807 91.5947C112.819 92.1462 112.694 92.6922 112.443 93.1835V93.1835ZM112.654 58.8108C112.991 59.4446 113.186 60.1436 113.227 60.86C112.51 60.836 111.807 60.6573 111.165 60.3359C110.604 60.0592 110.091 59.6947 109.646 59.2562C109.199 58.8187 108.823 58.3139 108.533 57.7601C108.197 57.1267 108.001 56.4289 107.957 55.7135C108.673 55.7403 109.375 55.9199 110.017 56.2402C110.577 56.5175 111.091 56.8809 111.539 57.3173C111.988 57.7526 112.364 58.2568 112.654 58.8108V58.8108ZM107.218 38.8928C107.754 39.0466 108.25 39.3142 108.673 39.6772C109.096 40.0403 109.436 40.4903 109.67 40.9966C109.88 41.4537 109.998 41.9478 110.017 42.4506C110.04 43.063 109.917 43.6721 109.657 44.2275C109.068 44.0603 108.527 43.755 108.078 43.3371C107.71 42.9942 107.413 42.5818 107.205 42.1237C106.975 41.616 106.857 41.0645 106.859 40.5069C106.861 39.9494 106.984 39.3988 107.218 38.8928V38.8928ZM103.158 81.1704C103.747 80.4463 104.411 79.7862 105.138 79.2012C105.909 78.5687 106.78 78.0674 107.714 77.7173C107.561 78.7032 107.248 79.6574 106.786 80.5417C106.361 81.3727 105.85 82.1567 105.261 82.8807C104.674 83.6066 104.011 84.2676 103.284 84.8523C102.512 85.4858 101.641 85.9865 100.705 86.3339C100.854 85.3468 101.167 84.3915 101.63 83.5072C102.055 82.6759 102.567 81.8925 103.158 81.1704V81.1704ZM100.59 70.3503C100.188 70.5685 99.7442 70.697 99.2881 70.7267C98.8319 70.7546 98.3749 70.6849 97.9478 70.5222C97.4122 70.3154 96.9348 69.9819 96.5563 69.5503C96.8743 69.0723 97.3033 68.6786 97.8067 68.4027C98.2086 68.1849 98.6524 68.0553 99.1083 68.0226C99.5643 67.9917 100.022 68.0602 100.449 68.2234C100.985 68.43 101.463 68.7649 101.84 69.1989C101.524 69.6791 101.095 70.0744 100.59 70.3503V70.3503ZM97.7725 23.7183C98.318 24.0563 98.8086 24.4756 99.2274 24.9618C99.6473 25.447 99.9891 25.9945 100.241 26.5848C100.532 27.2562 100.677 27.982 100.665 28.7138C99.9398 28.6152 99.244 28.363 98.624 27.9741C98.0783 27.6366 97.5884 27.2162 97.172 26.7281C96.7543 26.2409 96.4136 25.6929 96.1615 25.1028C95.8712 24.4318 95.7257 23.7072 95.7343 22.9761C96.4584 23.0775 97.1529 23.3304 97.7725 23.7183ZM95.7496 41.4855C95.8342 40.6995 96.0071 39.9256 96.2648 39.1783C96.5492 38.3694 96.9367 37.6006 97.4177 36.8908C97.9298 37.6221 98.2604 38.4649 98.3821 39.3494C98.6344 40.9551 98.4633 42.5988 97.8855 44.1181C97.5808 44.9415 97.1207 45.6986 96.5302 46.3484C96.1298 45.5722 95.8721 44.7304 95.7693 43.863C95.6684 43.0741 95.6618 42.276 95.7496 41.4855V41.4855ZM86.74 26.76C87.3052 27.0574 87.7845 27.4949 88.1321 28.0306C87.6477 28.4256 87.0853 28.7137 86.4816 28.8759C85.9891 29.0083 85.4772 29.0534 84.969 29.0092C84.467 28.9653 83.976 28.8368 83.5168 28.629C82.958 28.3726 82.4492 28.0189 82.0141 27.5845C82.424 27.0834 82.968 26.7093 83.5825 26.5059C84.1017 26.3313 84.651 26.2643 85.1969 26.3087C85.7366 26.3528 86.2616 26.5063 86.74 26.76V26.76ZM86.7999 42.9988C85.9742 43.2525 85.1081 43.3487 84.2467 43.2824C83.4603 43.2293 82.6838 43.0767 81.9359 42.8282C81.187 42.5822 80.4717 42.2438 79.8065 41.8209C79.0745 41.3634 78.4338 40.774 77.9169 40.0827C78.743 39.8322 79.6083 39.7372 80.469 39.8026C81.2554 39.8562 82.0321 40.0076 82.7811 40.2533C83.5309 40.4965 84.2468 40.8338 84.9116 41.2572C85.6446 41.7142 86.2852 42.305 86.7999 42.9988V42.9988ZM78.2624 15.3017C78.8933 15.0657 79.5552 14.9229 80.2273 14.8776C80.8992 14.8305 81.5744 14.8833 82.2309 15.0343C82.9729 15.1993 83.6727 15.5165 84.2859 15.9658C83.7376 16.4923 83.086 16.8994 82.3723 17.1611C81.7416 17.3977 81.0793 17.5394 80.4071 17.5817C79.735 17.6258 79.06 17.5718 78.4034 17.4214C77.6622 17.2558 76.9629 16.94 76.3486 16.4935C76.8984 15.9696 77.5497 15.564 78.2624 15.3017ZM68.4034 26.5237C68.9599 26.726 69.4791 27.019 69.9399 27.3907C70.4013 27.7618 70.7969 28.2079 71.1102 28.7103C71.4771 29.2929 71.71 29.9498 71.7918 30.6335C71.1061 30.6957 70.4151 30.6047 69.7689 30.367C69.2123 30.1652 68.6936 29.8711 68.2346 29.497C67.7751 29.1236 67.3805 28.6768 67.0668 28.1746C66.7008 27.5924 66.4674 26.9368 66.3828 26.2544C67.068 26.195 67.7578 26.2869 68.4034 26.5237V26.5237ZM55.9604 13.0087C56.7099 12.8908 57.4715 12.8703 58.2262 12.9479C58.9812 13.0228 59.7229 13.1971 60.4324 13.466C61.2176 13.7555 61.9396 14.1937 62.5589 14.7566C61.8378 15.1813 61.0416 15.4631 60.2139 15.5863C59.4645 15.7049 58.7027 15.7241 57.9483 15.6436C57.1936 15.5656 56.4522 15.3902 55.7425 15.1217C54.9583 14.8316 54.2364 14.3949 53.6156 13.8347C54.3376 13.413 55.1334 13.1327 55.9604 13.0087V13.0087ZM47.7002 23.4024C48.4634 23.0953 49.2605 22.8804 50.0747 22.7624C50.8883 22.6415 51.7137 22.62 52.5326 22.6984C53.4247 22.775 54.2954 23.0137 55.1019 23.4029C54.4391 24.0051 53.672 24.4812 52.8383 24.8079C52.0754 25.1156 51.2779 25.3293 50.4633 25.4444C49.6492 25.5623 48.8238 25.5826 48.0048 25.5047C47.1134 25.4273 46.2433 25.1899 45.4361 24.8038C46.1005 24.2044 46.8674 23.7297 47.7002 23.4024V23.4024ZM51.4484 41.8424C50.7347 41.5504 50.0887 41.1149 49.5503 40.5629C49.0677 40.0757 48.6587 39.5207 48.3361 38.9156C48.0118 38.3113 47.7756 37.6637 47.6347 36.9925C47.4721 36.2396 47.464 35.4614 47.6108 34.7052C48.3226 34.9998 48.9672 35.4357 49.5057 35.9866C49.9879 36.4742 50.3978 37.0284 50.723 37.6322C51.05 38.235 51.2874 38.8822 51.4277 39.5534C51.5912 40.307 51.5983 41.0861 51.4484 41.8424V41.8424ZM41.7497 85.6899C41.8586 84.9374 42.1206 84.2153 42.5194 83.5681C43.0835 84.0777 43.5373 84.6975 43.8526 85.3893C44.1357 86.0015 44.3283 86.6517 44.4243 87.3194C44.5222 87.9867 44.5206 88.6649 44.4197 89.3318C44.3115 90.0851 44.0482 90.8078 43.6464 91.4542C43.0797 90.9462 42.6245 90.3262 42.3096 89.6334C42.0259 89.0214 41.8345 88.3708 41.7415 87.7028C41.6466 87.035 41.6493 86.3569 41.7496 85.6899H41.7497ZM46.3226 112.958C45.7437 112.891 45.1805 112.725 44.6575 112.468C44.134 112.211 43.6574 111.868 43.2475 111.454C42.7685 110.972 42.4022 110.389 42.1749 109.749C42.8198 109.534 43.5042 109.464 44.1791 109.545C44.7581 109.613 45.3216 109.778 45.846 110.032C46.3706 110.286 46.848 110.628 47.2575 111.043C47.7376 111.525 48.1035 112.109 48.3284 112.751C47.6837 112.969 46.9983 113.04 46.3226 112.958H46.3226ZM60.8265 116.164C60.6122 116.728 60.3062 117.253 59.9208 117.717C59.5361 118.182 59.0786 118.581 58.5659 118.899C57.9745 119.269 57.3097 119.506 56.6176 119.593C56.5711 118.897 56.6766 118.199 56.927 117.548C57.1417 116.984 57.4466 116.459 57.8298 115.993C58.2121 115.526 58.6689 115.125 59.1818 114.808C59.7735 114.437 60.4397 114.201 61.1329 114.117C61.1823 114.813 61.0777 115.512 60.8264 116.164H60.8265ZM59.5617 106.192C58.8979 106.01 58.2641 105.733 57.6801 105.368C57.0949 105.006 56.5644 104.562 56.1046 104.05C55.5852 103.478 55.1869 102.807 54.9338 102.077C55.6999 101.977 56.4783 102.034 57.222 102.243C57.8857 102.426 58.5199 102.702 59.1056 103.064C59.6922 103.423 60.2236 103.867 60.683 104.379C61.2035 104.951 61.6013 105.624 61.8518 106.355C61.0853 106.458 60.3059 106.402 59.5617 106.192V106.192ZM70.8095 117.596C70.6937 118.389 70.4229 119.151 70.0125 119.839C69.4491 119.27 69.0034 118.594 68.7008 117.852C68.4244 117.187 68.24 116.487 68.1525 115.772C68.0629 115.058 68.0729 114.334 68.1823 113.622C68.2973 112.828 68.5695 112.066 68.9827 111.378C69.5489 111.946 69.9961 112.622 70.2982 113.365C70.5751 114.03 70.7584 114.73 70.8428 115.445C70.9294 116.16 70.9183 116.884 70.8095 117.596V117.596ZM75.0204 99.9589C74.3908 100.337 73.7135 100.629 73.0065 100.827C72.2242 101.052 71.4057 101.123 70.5964 101.035C70.8994 100.28 71.3465 99.5905 71.9127 99.0057C72.4199 98.4747 72.9958 98.0139 73.6251 97.6356C74.2532 97.2552 74.9301 96.9622 75.6372 96.7645C76.4199 96.5384 77.2394 96.4687 78.0491 96.5592C77.7486 97.3165 77.302 98.0072 76.7347 98.5919C76.2279 99.1233 75.6512 99.5832 75.0204 99.9589V99.9589ZM81.4888 111.543C80.7527 111.089 80.0717 110.552 79.4593 109.941C78.8446 109.333 78.3011 108.657 77.8392 107.926C77.3337 107.141 76.9686 106.274 76.7602 105.364C77.6725 105.563 78.5431 105.919 79.3333 106.416C80.0691 106.87 80.7509 107.407 81.3654 108.015C81.9822 108.621 82.5267 109.296 82.9881 110.028C83.4947 110.813 83.8591 111.681 84.0645 112.592C83.1509 112.396 82.2791 112.041 81.4888 111.543V111.543ZM88.1792 77.9278C86.386 81.442 83.6196 84.366 80.21 86.351C79.113 87.1397 78.0822 88.0167 77.1279 88.9732C74.9637 91.0196 72.726 93.1348 69.579 93.3439C68.3235 93.4273 67.137 93.469 66.0196 93.469C62.6558 93.625 59.3001 93.0189 56.2033 91.6959C53.3548 90.2915 51.7373 87.2702 50.1727 84.3476C49.542 83.1709 48.947 82.059 48.2852 81.0728C47.6564 80.1357 46.8807 79.2012 46.0601 78.2124C43.9362 75.6544 41.7403 73.009 41.5205 69.7005C41.2307 65.3371 43.4412 60.8638 45.217 57.27L45.4076 56.8848C47.5736 53.1324 50.6658 49.9983 54.3887 47.7819C55.2132 47.1963 56.0036 46.5641 56.7561 45.8884C59.0281 43.9347 61.598 41.7201 64.5498 42.3423C65.1032 42.5142 65.5678 42.895 65.845 43.4039C65.9039 43.4879 65.9622 43.572 66.0217 43.6488C67.5327 45.5906 67.5413 48.1022 67.5486 50.5312C67.3697 52.4686 67.687 54.4196 68.4706 56.2004C68.7763 56.4848 69.1478 56.6886 69.5518 56.7938C69.9558 56.8989 70.3796 56.902 70.785 56.8027C71.0102 56.6552 71.1891 56.4471 71.3013 56.2025C71.7161 55.4488 71.9758 54.6196 72.0651 53.7639C72.1543 52.9082 72.0712 52.0433 71.8208 51.2202C71.7274 50.9218 71.6124 50.6259 71.4978 50.33C71.0881 49.4737 70.8874 48.5324 70.9121 47.5834C70.971 47.1026 71.1558 46.6458 71.4479 46.2593C71.7399 45.8727 72.1288 45.5702 72.5753 45.3822C72.8825 45.2429 73.2229 45.1938 73.5568 45.2407C73.8908 45.2876 74.2046 45.4285 74.4615 45.6469C74.8627 46.0387 75.1388 46.5405 75.2551 47.0891C75.317 47.3684 75.4318 47.6333 75.5933 47.8694C75.6682 47.9476 75.7603 48.0072 75.8624 48.0434C75.9644 48.0796 76.0735 48.0914 76.181 48.0778C76.4241 48.054 76.6593 47.9786 76.8709 47.8565C77.0825 47.7345 77.2656 47.5688 77.408 47.3703C77.5341 47.0873 77.6006 46.7814 77.6033 46.4716C77.5764 46.0904 77.6537 45.709 77.8268 45.3683C77.9999 45.0276 78.2624 44.7403 78.5861 44.5371C78.7205 44.4747 78.8702 44.4525 79.0169 44.4732C79.1637 44.4938 79.3014 44.5565 79.4134 44.6536C83.5246 46.64 87.0874 49.6023 89.7909 53.2819V53.2825C91.3138 55.5526 90.5825 58.4753 89.875 61.3013C89.3518 62.9979 89.0834 64.7628 89.0785 66.5383C89.1255 67.2431 89.1824 67.9142 89.2374 68.5602C89.5187 71.8647 89.7616 74.7192 88.1792 77.9278ZM89.8174 88.3845C90.4947 88.3303 91.1756 88.4268 91.8112 88.667C92.3567 88.8718 92.864 89.1669 93.3117 89.5397C93.7599 89.912 94.1411 90.3582 94.4388 90.8591C94.7889 91.4424 95.0038 92.0968 95.0677 92.7741C94.3898 92.8312 93.7076 92.7356 93.0715 92.4943C92.5259 92.2901 92.0192 91.9941 91.5735 91.6189C91.1271 91.2443 90.7469 90.7973 90.4488 90.2967C90.0997 89.7138 89.884 89.0607 89.8174 88.3845V88.3845ZM93.2597 113.531C92.422 113.626 91.5738 113.562 90.7599 113.342C91.2237 112.638 91.8165 112.028 92.5071 111.544C93.1315 111.1 93.8102 110.738 94.5267 110.466C95.2423 110.192 95.9906 110.012 96.7526 109.932C97.5909 109.835 98.4399 109.901 99.2537 110.124C98.7921 110.83 98.1995 111.442 97.5079 111.925C96.8839 112.37 96.2045 112.731 95.4869 113C94.7702 113.271 94.0218 113.45 93.2597 113.531V113.531Z" fill="#F6EB7D"/>
<path d="M60.5407 128.262C60.3728 128.178 60.1894 128.129 60.0019 128.119C59.8144 128.109 59.6268 128.137 59.4507 128.202C58.8404 128.415 58.3368 128.856 58.0463 129.434C57.6349 130.531 57.5187 131.717 57.7092 132.874C59.1523 133.184 60.4823 133.436 61.7318 133.636L61.6182 131.217C61.5619 130.013 61.3898 128.721 60.5407 128.262Z" fill="#F6EB7D"/>
<path d="M83.5838 129.214C85.7854 127.847 88.0847 126.644 90.4629 125.614C90.7494 125.5 91.0451 125.4 91.3366 125.294C91.0171 124.772 90.5259 124.377 89.9473 124.177C89.2764 124.08 88.5927 124.115 87.9354 124.282C87.2782 124.449 86.6604 124.744 86.1173 125.15C85.1948 125.687 84.2017 126.093 83.1668 126.356C82.5063 126.471 81.8364 126.523 81.1661 126.51C80.4712 126.409 79.7621 126.479 79.1007 126.715C78.4394 126.951 77.846 127.346 77.3724 127.865C76.8834 128.332 76.3333 128.731 75.737 129.051C74.6263 129.496 73.4362 129.71 72.2399 129.678C70.4715 129.754 69.3603 129.868 68.8301 130.812C68.5195 131.662 68.4977 132.591 68.7679 133.454L68.854 133.965C68.8687 134.059 68.8665 134.154 68.8791 134.247C69.653 134.248 70.4261 134.244 71.1578 134.195C75.5935 133.9 79.6559 131.518 83.5838 129.214Z" fill="#F6EB7D"/>
<path d="M43.6615 122.75C43.4326 122.657 43.1943 122.574 42.956 122.49C42.196 122.362 41.4904 122.014 40.9264 121.488C40.3625 120.963 39.965 120.284 39.7832 119.535C39.6801 119.204 39.5444 118.884 39.3781 118.58C38.4132 116.973 35.8459 117.093 33.7889 117.188C33.3652 117.32 32.9143 117.339 32.4809 117.243C32.0475 117.147 31.6467 116.94 31.318 116.642C30.9893 116.344 30.7442 115.965 30.6069 115.543C30.4697 115.12 30.445 114.67 30.5354 114.235C30.5757 113.881 30.5455 113.523 30.4467 113.181C30.2388 112.681 29.5545 112.388 28.9807 112.189C28.4546 111.951 27.8702 111.874 27.3003 111.966C26.3122 112.25 25.9601 113.741 26.2513 114.955C26.3414 115.311 26.4525 115.661 26.5839 116.003C28.0135 116.95 29.4758 117.869 30.9596 118.797L32.7128 119.898C34.7145 121.214 36.6439 122.638 38.4926 124.162C41.5315 126.863 44.9973 129.041 48.7491 130.608C48.6287 129.776 48.4414 128.955 48.1892 128.154C47.8655 126.981 47.2938 125.892 46.5126 124.96C45.7315 124.028 44.7592 123.274 43.6615 122.75V122.75Z" fill="#F6EB7D"/>
<path d="M124.004 102.16C127.353 96.8497 131.425 89.8587 133.191 82.871C134.224 78.7869 133.343 74.3632 132.41 69.6794C131.83 67.062 131.418 64.4101 131.178 61.74C131.098 60.5315 131.033 59.3263 130.968 58.1277C130.646 52.1699 130.342 46.5423 128.274 41.3694C125.734 34.8723 122.186 28.8167 117.758 23.4264L117.577 23.21C113.106 17.8525 108.484 12.3122 102.734 8.6854C96.6431 5.0655 90.0266 2.4139 83.1214 0.825479C78.016 -0.465763 72.6082 0.0187049 66.8826 0.530366C65.3558 0.666702 63.825 0.803704 62.2961 0.905626C55.0299 1.38811 48.4956 3.9997 42.731 6.30421C36.4815 8.83461 30.6838 12.3618 25.5637 16.7486C20.3805 21.0472 15.9243 26.1535 12.3667 31.8708C11.1952 33.7279 9.83518 35.538 8.51946 37.2886C5.67291 41.0749 2.72908 44.991 1.57087 49.5742C0.0594666 56.4205 -0.36489 63.4621 0.313375 70.4405L0.36236 71.1804C0.8177 78.0641 1.28826 85.1821 3.69668 91.2062C5.49223 95.6967 9.01452 99.3686 12.4203 102.92C13.8764 104.438 15.3827 106.009 16.7209 107.612C18.1881 109.345 19.8164 110.934 21.5839 112.358C21.5638 111.026 21.4593 109.695 21.271 108.375C21.232 108.126 21.2134 107.86 21.1949 107.591C21.228 107.085 21.1018 106.582 20.8342 106.152C20.0002 105.387 19.0271 104.79 17.9678 104.393C16.6362 103.94 15.4618 103.115 14.5825 102.017C11.4055 97.5498 8.82629 92.686 6.91054 87.5496C5.93566 84.6792 7.10644 81.4256 8.23819 78.2793C9.25309 75.9927 9.81262 73.5302 9.88548 71.0296C9.77032 69.2909 9.5228 67.6013 9.28454 65.9672C8.59892 62.6497 8.50081 59.2376 8.99466 55.8861C9.3265 53.9627 9.53211 52.0196 9.61016 50.0693C9.5932 46.6943 10.2434 43.3493 11.5235 40.2265C12.9286 37.376 15.791 35.6798 18.5595 34.0383C20.5577 32.9962 22.385 31.6549 23.978 30.0607C25.145 28.673 26.2284 27.2171 27.2223 25.7006C28.91 22.8659 31.1337 20.3871 33.7691 18.4025C35.6246 16.9307 37.2291 15.1679 38.5204 13.1826C40.5986 10.3851 42.7469 7.49213 45.7808 6.46106C48.6743 5.47955 52.0616 6.45772 55.337 7.40417C57.6664 8.23411 60.1167 8.67462 62.5894 8.70799C67.7155 8.23964 72.8809 8.44635 77.9532 9.32283C79.8018 9.64945 81.6667 9.87612 83.5397 10.0019C87.0006 10.0787 90.4171 10.7967 93.6161 12.1196C96.4911 13.5366 98.3092 16.3448 100.068 19.0596C101.18 20.9691 102.543 22.7207 104.121 24.2676C111.82 30.7493 117.571 39.2378 120.737 48.7905V48.7912C121.407 50.5882 122.219 52.329 123.166 53.9972C124.93 56.8152 126.068 59.9801 126.5 63.2768C126.522 66.6589 125.86 70.0105 124.554 73.1302C123.913 74.8676 123.39 76.6459 122.987 78.4533L122.931 78.7379C122.198 83.6551 120.794 88.4483 118.757 92.9832C117.874 95.2357 117.379 97.6209 117.29 100.038C116.95 103.449 116.598 106.978 114.538 109.331L114.374 109.48C114.243 109.926 114.173 110.388 114.165 110.853C114.152 111.437 114.059 112.015 113.888 112.573C113.603 113.512 113.101 114.37 112.424 115.08C111.746 115.789 110.911 116.329 109.986 116.656C109.664 116.747 109.337 116.821 109.008 116.879C108.54 116.85 108.076 116.978 107.69 117.243C107.303 117.508 107.016 117.894 106.874 118.341C106.742 118.627 106.588 118.904 106.415 119.168C105.533 120.223 104.319 120.945 102.971 121.217C102.127 121.431 101.328 121.791 100.608 122.281C100.393 122.456 100.202 122.659 100.039 122.884C103.746 122.181 107.251 120.666 110.302 118.447C115.659 113.734 120.277 108.244 124.004 102.16V102.16Z" fill="#F6EB7D"/>
</svg>
