<svg width="95" height="115" viewBox="0 0 95 115" fill="none" xmlns="http://www.w3.org/2000/svg">
<path d="M87.2622 52.0971V44.5775C87.2622 39.0641 82.7763 34.579 77.2629 34.579H57.1271L63.1782 28.1366L60.4439 20.5489L76.2416 25.2039L81.1211 18.6366C82.2437 19.0933 83.4683 19.3502 84.7529 19.3502C90.0874 19.3502 94.4281 15.0098 94.4281 9.67521C94.4281 4.34064 90.0874 0 84.7529 0C79.4185 0 75.0779 4.34064 75.0779 9.67521C75.0779 12.6081 76.3947 15.2354 78.4628 17.0111L75.0416 21.6157L55.4481 15.8408L59.6143 27.3987L52.8693 34.579H41.9892L35.3864 27.5494L39.5527 15.9909L19.9584 21.7664L16.5375 17.1622C18.6058 15.3865 19.9229 12.7591 19.9229 9.82607C19.9229 4.49065 15.5823 0.150108 10.2471 0.150108C4.91256 0.150108 0.571926 4.49065 0.571926 9.82607C0.571926 15.1605 4.91256 19.5011 10.2471 19.5011C11.5319 19.5011 12.7563 19.2441 13.8791 18.7875L18.7584 25.3546L34.5567 20.6989L31.821 28.2875L37.7311 34.579H17.7371C12.2237 34.579 7.73782 39.0641 7.73782 44.5775V52.0971H0V86.0448H7.73782V104.103C7.73782 109.617 12.2237 114.103 17.7371 114.103H77.2629C82.7763 114.103 87.2622 109.617 87.2622 104.103V86.0448H95V52.0971H87.2622V52.0971ZM7.73782 82.9415H3.10331V55.2004H7.73782V82.9415ZM17.4787 80.083C15.1631 80.083 12.9399 79.6033 10.8411 78.7085V47.4669C12.939 46.572 15.1618 46.0921 17.4787 46.0921C26.8501 46.0921 34.4742 53.7163 34.4742 63.0875C34.4742 72.4589 26.8501 80.083 17.4787 80.083ZM65.8846 110.999H29.1162V90.6204H65.8846V110.999ZM84.1589 78.7083C82.061 79.6032 79.8382 80.083 77.522 80.083C68.1506 80.083 60.5266 72.4589 60.5266 63.0875C60.5266 53.7163 68.1506 46.0921 77.522 46.0921C79.8376 46.0921 82.0603 46.5718 84.1589 47.4667V78.7083ZM91.8967 82.9415H87.2622V55.2004H91.8967V82.9415Z" fill="#535A77"/>
<path d="M58.0992 99.431H36.9011V102.534H58.0992V99.431Z" fill="#535A77"/>
<path d="M58.0992 105.022H36.9011V108.126H58.0992V105.022Z" fill="#535A77"/>
<path d="M58.0992 93.494H36.9011V96.5973H58.0992V93.494Z" fill="#535A77"/>
<path d="M22.656 56.2929C19.0412 56.2929 16.1008 59.2335 16.1008 62.848C16.1008 66.4635 19.0412 69.4047 22.656 69.4047C26.2707 69.4047 29.2119 66.4635 29.2119 62.848C29.2119 59.2335 26.2707 56.2929 22.656 56.2929Z" fill="#535A77"/>
<path d="M72.3443 56.5316C68.7296 56.5316 65.7893 59.4721 65.7893 63.0867C65.7893 66.7015 68.7296 69.6426 72.3443 69.6426C75.9599 69.6426 78.9011 66.7015 78.9011 63.0867C78.9011 59.4721 75.9599 56.5316 72.3443 56.5316Z" fill="#535A77"/>
</svg>
