<svg width="90" height="90" viewBox="0 0 90 90" fill="none" xmlns="http://www.w3.org/2000/svg">
<path d="M0 8V56C0 60.411 3.589 64 8 64H45.226L70.548 89.322C70.934 89.709 71.445 89.908 71.962 89.908C72.346 89.908 72.731 89.799 73.066 89.574C73.859 89.048 74.171 88.036 73.814 87.154L64.389 64H82C86.411 64 90 60.411 90 56V8C90 3.589 86.411 0 82 0H8C3.589 0 0 3.589 0 8ZM30.926 44.951C28.674 44.951 26.976 43.188 26.976 40.85C26.976 38.445 28.658 36.7 30.976 36.7C33.236 36.7 34.86 38.396 34.926 40.823C34.926 43.226 33.244 44.951 30.926 44.951ZM30.926 27.299C28.674 27.299 26.976 25.537 26.976 23.198C26.976 20.794 28.658 19.048 30.976 19.048C33.237 19.048 34.861 20.744 34.926 23.172C34.926 25.575 33.244 27.299 30.926 27.299ZM50.577 33.625C50.577 34.177 50.13 34.625 49.577 34.625H37.225C36.673 34.625 36.225 34.177 36.225 33.625V30.375C36.225 29.823 36.673 29.375 37.225 29.375H49.576C50.129 29.375 50.576 29.823 50.577 30.375V33.625ZM56.275 52.979C56.086 53.229 55.79 53.376 55.476 53.376H52.076C51.701 53.376 51.357 53.166 51.185 52.833C51.015 52.499 51.042 52.098 51.263 51.793C55.374 46.059 57.373 39.558 57.373 31.924C57.373 24.312 55.375 17.864 51.267 12.211C51.043 11.906 51.013 11.504 51.185 11.169C51.355 10.834 51.7 10.623 52.076 10.623H55.476C55.784 10.623 56.075 10.765 56.263 11.008C60.748 16.757 63.023 23.812 63.025 31.974C63.025 40.073 60.816 46.943 56.275 52.979Z" fill="#E16070"/>
</svg>
