<svg width="150" height="150" viewBox="0 0 150 150" fill="none" xmlns="http://www.w3.org/2000/svg">
<rect width="150" height="150" fill="#F6EB7D"/>
<path d="M134 76.4074C131.16 73.967 127.508 73.967 124.127 74.7805C124.127 73.6958 124.262 72.7467 124.262 71.6621C124.397 66.51 124.533 61.2224 123.992 56.0703C127.238 57.155 130.213 56.8838 132.107 53.6299C132.918 52.2741 132.783 50.3759 131.566 49.2913C128.59 46.7152 124.938 42.7834 121.151 41.1564C119.663 38.716 115.741 37.6313 113.171 37.2246C109.113 36.6823 105.056 37.3602 101.133 38.3092C100.998 38.3092 100.863 38.3092 100.863 38.1737C100.863 38.0381 100.863 37.9025 100.863 37.7669C100.998 30.9879 92.3418 31.3946 85.1732 32.6149C86.5258 31.3946 87.4726 29.7677 87.6078 27.8695C87.7431 24.6156 84.7674 22.4463 81.7918 23.1242C78.6809 23.8021 75.4348 25.9714 72.865 27.7339C71.3772 28.8186 69.8893 30.0388 68.5368 31.259C68.131 31.6658 67.8605 32.0725 67.4547 32.6149C65.4259 28.1407 62.0445 24.48 56.4991 24.2089C54.1997 24.0733 52.4414 26.5137 52.9824 28.8186C53.2529 29.6321 53.5234 30.7167 53.9292 31.6658C52.7119 31.259 51.3593 31.1235 50.0068 30.9879C46.0844 30.5811 39.9979 28.9542 37.2928 32.886C36.0755 34.6486 36.0755 36.2755 36.6165 37.7669C31.4768 37.7669 26.2018 38.0381 21.0621 38.8516C18.4923 39.2583 16.8692 39.8006 15.9224 42.3767C15.2461 44.2748 15.1109 46.4441 16.1929 48.2066C14.1641 49.9692 13.2173 52.2741 14.7051 55.2568C16.1929 58.5108 19.5743 58.9175 22.4147 57.2905C22.5499 57.155 22.8204 57.155 22.9557 57.0194C22.9557 57.2905 22.9557 57.4261 22.9557 57.6973C22.5499 58.2396 22.4147 58.9175 22.4147 59.731C22.4147 65.4254 22.2794 71.1198 22.2794 76.8142C16.8692 77.0853 12 81.8307 12 87.6606C12 93.0839 17.275 97.0157 22.0089 95.9311C22.0089 96.3378 22.0089 96.7445 22.0089 97.2869C21.8736 106.506 22.0089 117.353 30.53 123.183C34.4524 125.894 39.4569 126.572 44.1908 126.843C50.4126 127.115 56.7696 126.979 62.9913 126.843C75.7053 126.572 88.4193 125.623 100.998 124.539C105.732 124.132 111.007 124.267 115.2 121.691C119.799 118.98 120.475 114.099 121.016 109.218C121.692 103.795 122.233 98.3715 122.774 92.9483C125.344 93.6262 128.049 93.6262 130.619 92.5415C133.865 91.1857 136.3 88.4741 136.841 85.0846C137.382 81.9662 136.57 78.5767 134 76.4074ZM22.1442 88.0674C21.6031 88.2029 21.0621 88.4741 20.5211 89.0164C19.8448 89.6943 19.0333 88.0674 19.1685 87.525C19.3038 86.3048 20.6563 84.1355 22.1442 83.8644C22.1442 85.3558 22.1442 86.7116 22.1442 88.0674ZM113.712 109.354C113.442 111.252 113.442 113.828 111.954 115.184C109.384 117.624 103.568 117.217 100.322 117.488C89.5014 118.302 78.5457 119.115 67.59 119.522C62.1798 119.658 56.9048 119.793 51.4946 119.793C47.1664 119.793 42.5677 119.929 38.3748 118.844C30.2595 116.675 29.1774 109.082 29.1774 101.897C31.7473 103.388 35.2639 103.659 37.8338 102.71C38.3748 102.575 39.0511 102.168 39.5921 101.897C41.6209 101.354 43.3793 100.405 44.7318 99.0494C45.0023 98.7782 45.2728 98.5071 45.4081 98.2359C46.7607 97.2869 47.8427 96.0666 48.2485 94.1685C49.3305 89.4232 45.9491 85.0846 41.3504 83.9999C37.1575 82.9153 32.8293 84.2711 29.3127 86.576C29.448 78.7123 29.448 70.713 29.5832 62.8494C30.2595 62.0359 30.6653 60.9512 30.3947 59.731C29.989 57.4261 29.7185 55.1213 30.1242 52.8164C30.53 52.5452 31.071 52.2741 31.4768 52.0029C39.7274 53.3587 48.1132 51.8673 55.1465 47.2576C57.1753 49.9692 60.9625 50.9182 64.2086 49.8336C65.1554 49.5624 65.9669 49.1557 66.6432 48.6134C67.049 49.4269 67.4547 50.2403 68.131 50.9182C71.1066 53.901 76.7874 53.2231 77.3284 48.3422C77.4636 47.5287 77.3284 46.8508 77.1931 46.0373C80.7098 49.1557 86.12 49.698 90.7187 50.1048C94.9116 50.3759 100.322 51.325 104.785 50.1048C106.408 53.2231 108.978 55.6636 112.901 56.2059C114.253 56.3415 115.741 56.2059 116.958 55.6636C117.499 60.4089 117.364 65.4254 117.229 70.1707C117.229 73.8314 116.958 77.4921 116.823 81.0172C116.688 81.0172 116.552 80.8816 116.417 80.8816C110.736 79.2546 101.539 77.7632 97.0757 82.7797C96.1289 83.8644 95.1821 85.4913 94.6411 87.2539C94.3706 87.7962 94.1001 88.3385 93.9648 89.0164C91.2597 97.8292 101.269 102.168 108.437 99.9985C110.872 99.7273 113.306 99.3206 115.2 98.5071C115.065 99.7273 114.929 100.948 114.794 102.168C114.388 104.201 114.118 106.777 113.712 109.354ZM129.808 83.8644C129.402 86.576 125.615 86.8471 123.45 85.8981C123.45 85.8981 123.45 85.8981 123.315 85.8981C123.45 84.6779 123.451 83.5932 123.586 82.373C123.856 82.373 123.992 82.2374 124.262 82.2374C126.291 81.5595 130.349 80.3393 129.808 83.8644ZM81.3861 91.8636C72.7297 91.9992 63.8028 91.728 55.1465 90.5078C51.0888 89.9655 49.7363 87.3895 49.7363 83.5932C49.7363 79.3902 50.142 75.1872 50.6831 71.1198C51.2241 66.51 58.3926 66.51 57.8516 71.1198C57.4458 74.5093 57.1753 77.8988 57.0401 81.2883C57.0401 81.9662 57.0401 82.6441 57.0401 83.322C58.2574 83.322 60.1509 83.8644 60.9625 83.8644C67.7253 84.4067 74.6233 84.6779 81.5213 84.5423C86.12 84.6779 86.12 91.8636 81.3861 91.8636ZM39.8626 75.0516C35.2639 75.0516 35.2639 67.8658 39.8626 67.8658C44.5966 67.8658 44.5966 75.0516 39.8626 75.0516ZM96.2642 75.4584C91.6655 75.4584 91.6655 68.2726 96.2642 68.2726C100.863 68.2726 100.863 75.4584 96.2642 75.4584ZM84.0912 102.71C76.9226 106.506 68.5368 107.184 60.8272 104.201C56.4991 102.575 58.3926 95.5243 62.7208 97.2869C68.5368 99.5917 74.7585 99.4561 80.4393 96.609C84.6322 94.4397 88.2841 100.541 84.0912 102.71Z" fill="#D34A51"/>
</svg>
