<svg width="33" height="53" viewBox="0 0 33 53" fill="none" xmlns="http://www.w3.org/2000/svg">
<path fill-rule="evenodd" clip-rule="evenodd" d="M8.2287 16.038C3.81778 16.038 0.208984 12.4292 0.208984 8.01827C0.208984 3.6088 3.81778 0 8.2287 0H24.2031C28.6126 0 32.2214 3.6088 32.2214 8.01827C32.2214 12.4292 28.6126 16.038 24.2031 16.038H8.2287Z" fill="#d34a51"/>
<path fill-rule="evenodd" clip-rule="evenodd" d="M8.01682 34.3961H16.1811V18.3538H8.01682C5.8157 18.3538 3.80969 19.2556 2.35576 20.7095C0.901838 22.1634 0 24.1709 0 26.3793C0 30.7873 3.60735 34.3961 8.01682 34.3961Z" fill="#d34a51"/>
<path fill-rule="evenodd" clip-rule="evenodd" d="M24.9797 18.5181C20.5514 18.5181 16.96 22.1081 16.96 26.5378C16.96 30.966 20.5514 34.5561 24.9797 34.5561C29.4079 34.5561 32.9994 30.966 32.9994 26.5378C32.9994 22.1081 29.4079 18.5181 24.9797 18.5181Z" fill="#d34a51"/>
<path fill-rule="evenodd" clip-rule="evenodd" d="M16.1676 36.6837H7.86027V36.6996C3.57365 36.86 0.145508 40.3763 0.145508 44.7034C0.145508 49.1317 3.73552 52.7217 8.16378 52.7217C12.4547 52.7217 15.9494 49.3485 16.1633 45.111H16.1676V45.0199C16.1719 44.9144 16.1835 44.8104 16.1835 44.7034C16.1835 44.5965 16.1719 44.4924 16.1676 44.3855V36.6837Z" fill="#d34a51"/>
</svg>
