<svg width="62" height="59" viewBox="0 0 62 59" fill="none" xmlns="http://www.w3.org/2000/svg">
<path d="M61.05 41.1591C60.7681 41.466 60.4282 41.714 60.05 41.8891C56.12 43.5991 45.79 48.1191 34.74 53.1891C30.7435 55.0642 26.5694 56.5349 22.28 57.5791C19.4074 58.2437 16.4159 58.1956 13.5661 57.4392C10.7164 56.6827 8.09483 55.2408 5.93001 53.2391C3.84803 51.3266 2.23662 48.9585 1.22178 46.3199C0.206934 43.6813 -0.183839 40.8437 0.0800126 38.0291L3.08001 8.10906C3.14444 7.46736 3.33887 6.8455 3.65145 6.28138C3.96404 5.71727 4.38822 5.22271 4.89815 4.82787C5.40808 4.43302 5.99307 4.14616 6.61748 3.98475C7.24188 3.82335 7.89262 3.79079 8.53001 3.88906C9.72239 4.07472 10.7994 4.70725 11.5423 5.65819C12.2852 6.60913 12.6384 7.80719 12.53 9.00906L11.3 22.4091C11.2488 23.0822 11.4003 23.7552 11.735 24.3415C12.0698 24.9277 12.5724 25.4003 13.1781 25.6983C13.7838 25.9963 14.4649 26.1061 15.1336 26.0136C15.8023 25.921 16.428 25.6304 16.93 25.1791L43.73 0.899057C44.3623 0.320727 45.1881 0 46.045 0C46.9019 0 47.7277 0.320727 48.36 0.899057C48.706 1.215 48.9836 1.59849 49.1757 2.02586C49.3678 2.45322 49.4702 2.91541 49.4768 3.38391C49.4833 3.85241 49.3938 4.31729 49.2138 4.74986C49.0338 5.18244 48.767 5.57355 48.43 5.89906L33.31 20.4991C33.0442 20.7607 32.8847 21.1115 32.8621 21.4837C32.8396 21.856 32.9556 22.2235 33.1878 22.5153C33.42 22.8072 33.752 23.0027 34.1199 23.0644C34.4877 23.126 34.8654 23.0493 35.18 22.8491L54.35 10.3091C55.0129 9.94572 55.7867 9.84058 56.5225 10.0139C57.2582 10.1872 57.9038 10.6267 58.3348 11.2477C58.7658 11.8687 58.9516 12.6273 58.8566 13.3771C58.7615 14.127 58.3923 14.8152 57.82 15.3091L39.2 28.7991C38.8779 29.0355 38.6401 29.369 38.5213 29.7505C38.4025 30.132 38.4091 30.5415 38.54 30.9191C38.6264 31.1695 38.7658 31.3983 38.9487 31.5899C39.1317 31.7814 39.3538 31.9312 39.6 32.0291C39.849 32.1275 40.1163 32.1713 40.3837 32.1575C40.6511 32.1437 40.9124 32.0726 41.15 31.9491L57.15 23.6391C57.8737 23.2614 58.7166 23.1825 59.4978 23.4191C60.279 23.6557 60.9364 24.1891 61.3289 24.9048C61.7215 25.6205 61.8179 26.4616 61.5975 27.2475C61.3771 28.0335 60.8574 28.7018 60.15 29.1091L41.76 39.8791C41.4983 40.0452 41.307 40.302 41.2228 40.6004C41.1386 40.8987 41.1673 41.2177 41.3034 41.4962C41.4396 41.7747 41.6736 41.9932 41.9608 42.11C42.248 42.2267 42.5681 42.2335 42.86 42.1291L57.65 36.2191C58.0365 36.0651 58.4502 35.991 58.8662 36.0013C59.2821 36.0117 59.6916 36.1061 60.07 36.2791C60.4453 36.4445 60.7827 36.6852 61.0614 36.9862C61.34 37.2872 61.554 37.6421 61.69 38.0291C61.8809 38.5593 61.9221 39.1318 61.8092 39.6839C61.6963 40.236 61.4337 40.7463 61.05 41.1591V41.1591Z" fill="#4abaa9"/>
</svg>
