<svg width="33" height="50" viewBox="0 0 33 50" fill="none" xmlns="http://www.w3.org/2000/svg">
<path d="M25.9411 17.243C25.9677 17.7165 25.9198 18.206 25.8559 18.6742C25.8772 18.5305 25.8932 18.3922 25.9145 18.2485C25.7708 19.2914 25.4888 20.3129 25.0845 21.2866C25.1377 21.1589 25.1909 21.0312 25.2441 20.9035C24.9887 21.51 24.6854 22.0953 24.3343 22.6539C24.2385 22.8029 24.1427 22.9519 24.0417 23.1009C23.9991 23.1647 23.9512 23.2285 23.9086 23.2924C23.8661 23.3509 23.7331 23.4733 23.7171 23.5478C23.7171 23.5371 23.9778 23.2232 23.8182 23.4148C23.7916 23.4467 23.765 23.4786 23.7437 23.5105C23.6852 23.585 23.6213 23.6595 23.5575 23.734C23.4298 23.883 23.2968 24.0319 23.1638 24.1756C22.8818 24.4789 22.5838 24.7662 22.2699 25.0375C22.1209 25.1705 21.9666 25.2982 21.807 25.4259C21.7432 25.4791 21.674 25.527 21.6102 25.5802C22.0039 25.261 21.7006 25.5111 21.5995 25.5855C20.9824 26.0431 20.3279 26.4581 19.6575 26.8359C18.9074 27.2562 18.1306 27.6286 17.3378 27.9638C17.4655 27.9106 17.5932 27.8574 17.7209 27.8042C15.2309 28.8523 12.6185 29.4536 10.0434 30.2303C9.47407 30.4006 8.92606 30.6028 8.37805 30.8369C7.60657 31.1721 6.92555 31.6243 6.27644 32.1564C5.30279 32.9545 4.49939 34.0239 3.97266 35.1625C3.68003 35.7903 3.38208 36.4766 3.27035 37.1736C3.20119 37.6099 3.20119 38.0089 3.42997 38.4027C3.62151 38.7325 4.00458 39.0518 4.38234 39.1369C4.79202 39.2273 5.24958 39.2114 5.61138 38.9773C5.94125 38.7645 6.28176 38.4239 6.34561 38.0249C6.4201 37.5461 6.59568 37.0725 6.78189 36.6256C6.72869 36.7533 6.67548 36.881 6.62228 37.0087C6.76593 36.6682 6.93619 36.3383 7.12241 36.0244C7.23414 35.8382 7.35119 35.6573 7.47888 35.487C7.50548 35.4498 7.53741 35.4072 7.56401 35.37C7.67042 35.2263 7.29266 35.7105 7.44164 35.5296C7.52145 35.4338 7.59593 35.338 7.67574 35.2476C7.83003 35.072 7.99497 34.9018 8.16523 34.7421C8.25568 34.657 8.34612 34.5772 8.44189 34.4974C8.4951 34.4548 8.5483 34.4123 8.60151 34.3644C8.73984 34.242 8.27164 34.6091 8.47382 34.4655C8.94734 34.125 9.44215 33.8377 9.9742 33.6089C9.84651 33.6621 9.71882 33.7153 9.59113 33.7685C10.9904 33.1832 12.5068 32.8693 13.9593 32.4596C16.0556 31.8637 18.1252 31.1614 20.0938 30.2091C22.2327 29.1716 24.3077 27.7723 25.8453 25.942C27.202 24.3246 28.2183 22.4411 28.729 20.3874C28.9206 19.6159 29.0429 18.8232 29.0961 18.0304C29.1121 17.775 29.1281 17.5143 29.1121 17.2589C29.0642 16.4289 28.4098 15.6202 27.5159 15.6628C26.7126 15.6841 25.8879 16.3491 25.9411 17.243Z" fill="#fbd7d8"/>
<path d="M6.39903 41.4566C6.39903 40.3606 6.39903 39.2699 6.39903 38.1739C6.39903 35.5455 6.39903 32.9172 6.39903 30.2942C6.39903 27.1285 6.39903 23.9628 6.39903 20.7918C6.39903 18.057 6.39903 15.3223 6.39903 12.5875C6.39903 11.2627 6.42032 9.93258 6.39903 8.60777C6.39903 8.59181 6.39903 8.57052 6.39903 8.55456C6.39903 7.71924 5.6648 6.92116 4.80288 6.95841C3.93564 6.99565 3.20672 7.66072 3.20672 8.55456C3.20672 9.65059 3.20672 10.7413 3.20672 11.8373C3.20672 14.4657 3.20672 17.094 3.20672 19.717C3.20672 22.8827 3.20672 26.0484 3.20672 29.2195C3.20672 31.9542 3.20672 34.6889 3.20672 37.4237C3.20672 38.7485 3.18544 40.0786 3.20672 41.4034C3.20672 41.4194 3.20672 41.4407 3.20672 41.4566C3.20672 42.292 3.94096 43.09 4.80288 43.0528C5.67012 43.0156 6.39903 42.3558 6.39903 41.4566Z" fill="#fbd7d8"/>
<path d="M27.5376 17.2429C29.6063 17.2429 31.2833 15.566 31.2833 13.4973C31.2833 11.4286 29.6063 9.75165 27.5376 9.75165C25.469 9.75165 23.792 11.4286 23.792 13.4973C23.792 15.566 25.469 17.2429 27.5376 17.2429Z" fill="#fbd7d8"/>
<path d="M30.219 13.4973C30.219 13.5984 30.2137 13.6942 30.2084 13.7953C30.203 13.8325 30.203 13.8698 30.1977 13.907C30.1871 14.056 30.235 13.6942 30.2084 13.8378C30.1711 14.0134 30.1392 14.189 30.0807 14.3592C30.07 14.3912 30.0168 14.6146 29.9849 14.6253C29.9743 14.6306 30.0807 14.4231 30.0221 14.5295C30.0009 14.5721 29.9796 14.6146 29.9636 14.6572C29.8838 14.8115 29.7934 14.9605 29.6976 15.1041C29.6976 15.1094 29.6337 15.2105 29.6178 15.2158C29.6178 15.2158 29.788 15.0137 29.655 15.1626C29.6018 15.2212 29.5486 15.285 29.4901 15.3435C29.4316 15.4021 29.3784 15.4606 29.3145 15.5138C29.2826 15.5457 29.2453 15.5723 29.2081 15.6042C29.091 15.7107 29.256 15.5883 29.2613 15.567C29.24 15.6574 28.9048 15.8064 28.825 15.8543C28.7559 15.8916 28.6814 15.9288 28.6069 15.966C28.4685 16.0405 28.6601 15.966 28.6707 15.9448C28.6601 15.9607 28.559 15.9873 28.5377 15.998C28.3728 16.0565 28.1972 16.1097 28.0216 16.1416C27.9844 16.1469 27.9525 16.1576 27.9152 16.1629C27.7077 16.2055 27.9844 16.1576 27.9844 16.1576C27.9631 16.1895 27.7396 16.1789 27.6917 16.1789C27.5055 16.1842 27.3246 16.1735 27.1384 16.1576C27.016 16.1523 27.2395 16.1735 27.2395 16.1735C27.2023 16.1576 27.1384 16.1576 27.0959 16.1469C27.0001 16.131 26.9096 16.1044 26.8192 16.0831C26.7287 16.0565 26.6383 16.0299 26.5478 15.998C26.5159 15.9873 26.484 15.9714 26.4468 15.9607C26.3137 15.9235 26.6223 16.0618 26.5053 15.9873C26.3616 15.8916 26.1914 15.8277 26.0477 15.7373C26.0158 15.716 25.8296 15.6202 25.8189 15.5776C25.8189 15.567 25.9839 15.7213 25.8987 15.6362C25.8668 15.6042 25.8296 15.5776 25.7923 15.5457C25.6646 15.4287 25.5476 15.301 25.4305 15.1733C25.2922 15.0243 25.4678 15.2265 25.4678 15.2265C25.4518 15.2212 25.388 15.1148 25.388 15.1148C25.3401 15.0456 25.2975 14.9817 25.255 14.9126C25.2124 14.8434 25.1751 14.7742 25.1326 14.6998C25.1113 14.6572 25.09 14.6146 25.0687 14.5721C24.9942 14.4231 25.0741 14.6253 25.09 14.6359C25.0155 14.604 24.9464 14.2103 24.9251 14.1305C24.9038 14.0507 24.8932 13.9655 24.8719 13.8857C24.8506 13.8006 24.8878 13.7367 24.8772 13.9549C24.8772 13.907 24.8666 13.8538 24.8612 13.8112C24.8453 13.625 24.8453 13.4388 24.8612 13.2579C24.8612 13.2207 24.8666 13.1834 24.8719 13.1462C24.8878 12.9333 24.8666 13.2153 24.8612 13.21C24.84 13.1994 24.9091 12.9653 24.9144 12.928C24.957 12.7524 25.0209 12.5875 25.0741 12.4226C25.1113 12.3108 25.0421 12.5183 25.0368 12.513C25.0315 12.5077 25.09 12.4013 25.0953 12.3853C25.1379 12.3002 25.1805 12.2204 25.2284 12.1406C25.2762 12.0608 25.3241 11.981 25.3773 11.9065C25.3986 11.8799 25.4199 11.8533 25.4359 11.8214C25.5103 11.7043 25.2975 11.965 25.3986 11.8746C25.5263 11.7575 25.6274 11.6139 25.7551 11.4968C25.787 11.4649 25.8243 11.4383 25.8615 11.4064C25.9732 11.3053 25.8189 11.4064 25.8083 11.4436C25.8189 11.401 25.9785 11.3212 26.0051 11.3053C26.1541 11.2095 26.3031 11.1297 26.4627 11.0499C26.6436 10.9541 26.3989 11.0712 26.3989 11.0712C26.4042 11.0605 26.5319 11.018 26.5319 11.018C26.6117 10.9914 26.6862 10.9648 26.766 10.9435C26.8458 10.9222 26.9256 10.9009 27.0107 10.8796C27.0586 10.869 27.1065 10.8637 27.1544 10.853C27.298 10.8264 27.1437 10.8637 27.0852 10.8583C27.2661 10.8743 27.4576 10.8264 27.6385 10.8317C27.7237 10.8317 27.8088 10.8424 27.8939 10.8477C27.9897 10.853 28.011 10.9062 27.8301 10.8371C27.8726 10.853 27.9259 10.853 27.9737 10.8637C28.1706 10.9009 28.3621 10.9648 28.5537 11.0286C28.6122 11.0499 28.6973 11.1244 28.5909 11.0392C28.4792 10.9488 28.6122 11.0499 28.6548 11.0712C28.7399 11.1137 28.8197 11.1563 28.8995 11.2042C28.9793 11.2521 29.0591 11.2999 29.1336 11.3531C29.1389 11.3531 29.24 11.417 29.2453 11.433C29.2347 11.3851 29.0698 11.284 29.2187 11.417C29.3624 11.55 29.5007 11.6883 29.6337 11.8373C29.6816 11.8852 29.7189 11.8852 29.6391 11.8373C29.5859 11.7682 29.5859 11.7682 29.6391 11.8373C29.655 11.8586 29.6657 11.8746 29.6816 11.8958C29.7348 11.9703 29.7827 12.0501 29.8306 12.1299C29.8838 12.2204 29.9317 12.3162 29.9796 12.4066C29.9849 12.4119 30.0275 12.4971 30.0221 12.5024C30.0328 12.4917 29.9423 12.2896 30.0062 12.4758C30.0753 12.6673 30.1339 12.8589 30.1711 13.0557C30.1818 13.0983 30.1818 13.1621 30.1977 13.1994C30.1764 13.1515 30.1764 12.9865 30.1871 13.1355C30.2084 13.2473 30.2137 13.3696 30.219 13.4973C30.2243 14.056 30.7032 14.588 31.2831 14.5614C31.8524 14.5348 32.3525 14.0932 32.3472 13.4973C32.3259 11.4436 31.0384 9.67719 29.1336 8.96424C27.3246 8.28853 25.106 8.88975 23.8823 10.3795C22.5894 11.9544 22.3393 14.2049 23.4141 15.9767C24.4835 17.7378 26.5425 18.5944 28.5484 18.2007C30.751 17.7697 32.3259 15.7107 32.3472 13.5026C32.3525 12.944 31.8524 12.4119 31.2831 12.4385C30.6978 12.4598 30.2243 12.9014 30.219 13.4973Z" fill="#fbd7d8"/>
<path d="M4.7974 8.55457C6.86606 8.55457 8.54305 6.87758 8.54305 4.80892C8.54305 2.74026 6.86606 1.06328 4.7974 1.06328C2.72874 1.06328 1.05176 2.74026 1.05176 4.80892C1.05176 6.87758 2.72874 8.55457 4.7974 8.55457Z" fill="#fbd7d8"/>
<path d="M7.47901 4.80892C7.47901 4.91001 7.47369 5.00578 7.46837 5.10687C7.46305 5.14411 7.46304 5.18135 7.45772 5.2186C7.44708 5.36757 7.49497 5.00578 7.46837 5.14943C7.43112 5.32501 7.3992 5.50059 7.34067 5.67084C7.33003 5.70277 7.27683 5.92623 7.2449 5.93687C7.23426 5.94219 7.34067 5.73469 7.28215 5.8411C7.26087 5.88366 7.23958 5.92623 7.22362 5.96879C7.14381 6.12309 7.05337 6.27206 6.9576 6.41571C6.9576 6.42104 6.89375 6.52212 6.87779 6.52744C6.87779 6.52744 7.04805 6.32527 6.91503 6.47424C6.86183 6.53277 6.80862 6.59661 6.7501 6.65514C6.69157 6.71366 6.63837 6.77219 6.57452 6.82539C6.5426 6.85732 6.50535 6.88392 6.46811 6.91584C6.35106 7.02225 6.51599 6.89988 6.52131 6.8786C6.50003 6.96905 6.16484 7.11802 6.08503 7.16591C6.01586 7.20315 5.94138 7.24039 5.86689 7.27764C5.72856 7.35213 5.9201 7.27764 5.93074 7.25636C5.9201 7.27232 5.81901 7.29892 5.79772 7.30956C5.63279 7.36809 5.45721 7.42129 5.28163 7.45322C5.24439 7.45854 5.21247 7.46918 5.17522 7.4745C4.96772 7.51706 5.24439 7.46918 5.24439 7.46918C5.22311 7.5011 4.99965 7.49046 4.95176 7.49046C4.76554 7.49578 4.58465 7.48514 4.39843 7.46918C4.27606 7.46386 4.49952 7.48514 4.49952 7.48514C4.46227 7.46918 4.39843 7.46918 4.35586 7.45854C4.26009 7.44257 4.16964 7.41597 4.0792 7.39469C3.98875 7.36809 3.8983 7.34148 3.80785 7.30956C3.77593 7.29892 3.744 7.28296 3.70676 7.27232C3.57375 7.23507 3.88234 7.37341 3.76529 7.29892C3.62163 7.20315 3.45137 7.1393 3.30772 7.04886C3.2758 7.02757 3.08958 6.9318 3.07894 6.88924C3.07894 6.8786 3.24388 7.03289 3.15875 6.94777C3.12682 6.91584 3.08958 6.88924 3.05234 6.85732C2.92464 6.74027 2.80759 6.61257 2.69054 6.48488C2.55221 6.33591 2.72778 6.53809 2.72778 6.53809C2.71182 6.53277 2.64798 6.42636 2.64798 6.42636C2.60009 6.35719 2.55753 6.29334 2.51496 6.22418C2.4724 6.15501 2.43516 6.08584 2.39259 6.01135C2.37131 5.96879 2.35003 5.92623 2.32875 5.88366C2.25426 5.73469 2.33407 5.93687 2.35003 5.94751C2.27554 5.91559 2.20637 5.52187 2.18509 5.44206C2.16381 5.36225 2.15317 5.27712 2.13189 5.19732C2.1106 5.11219 2.14785 5.04834 2.13721 5.26648C2.13721 5.2186 2.12657 5.16539 2.12125 5.12283C2.10528 4.93661 2.10528 4.75039 2.12125 4.56949C2.12125 4.53225 2.12657 4.49501 2.13189 4.45776C2.14785 4.24494 2.12657 4.52693 2.12125 4.52161C2.09996 4.51097 2.16913 4.27687 2.17445 4.23962C2.21702 4.06405 2.28086 3.89911 2.33407 3.73417C2.37131 3.62244 2.30214 3.82994 2.29682 3.82462C2.2915 3.8193 2.35003 3.71289 2.35535 3.69693C2.39791 3.6118 2.44048 3.53199 2.48836 3.45219C2.53625 3.37238 2.58413 3.29257 2.63734 3.21808C2.65862 3.19148 2.6799 3.16488 2.69586 3.13296C2.77035 3.0159 2.55753 3.27661 2.65862 3.18616C2.78631 3.06911 2.8874 2.92546 3.01509 2.8084C3.04702 2.77648 3.08426 2.74988 3.1215 2.71795C3.23323 2.61686 3.07894 2.71796 3.0683 2.7552C3.07894 2.71263 3.23855 2.63283 3.26516 2.61686C3.41413 2.5211 3.56311 2.44129 3.72272 2.36148C3.90362 2.26571 3.65888 2.38276 3.65888 2.38276C3.6642 2.37212 3.79189 2.32956 3.79189 2.32956C3.8717 2.30295 3.94618 2.27635 4.02599 2.25507C4.1058 2.23379 4.18561 2.21251 4.27073 2.19122C4.31862 2.18058 4.3665 2.17526 4.41439 2.16462C4.55804 2.13802 4.40375 2.17526 4.34522 2.16994C4.52612 2.1859 4.71766 2.13802 4.89856 2.14334C4.98369 2.14334 5.06881 2.15398 5.15394 2.1593C5.24971 2.16462 5.27099 2.21783 5.09009 2.14866C5.13266 2.16462 5.18586 2.16462 5.23375 2.17526C5.43061 2.21251 5.62215 2.27635 5.81368 2.3402C5.87221 2.36148 5.95734 2.43597 5.85093 2.35084C5.7392 2.26039 5.87221 2.36148 5.91477 2.38276C5.9999 2.42533 6.07971 2.46789 6.15952 2.51578C6.23933 2.56366 6.31913 2.61154 6.39362 2.66475C6.39894 2.66475 6.50003 2.7286 6.50535 2.74456C6.49471 2.69667 6.32978 2.59558 6.47875 2.7286C6.6224 2.86161 6.76074 2.99994 6.89375 3.14892C6.94164 3.1968 6.97888 3.1968 6.89907 3.14892C6.84586 3.07975 6.84586 3.07975 6.89907 3.14892C6.91503 3.1702 6.92567 3.18616 6.94164 3.20744C6.99484 3.28193 7.04272 3.36174 7.09061 3.44154C7.14381 3.53199 7.1917 3.62776 7.23958 3.71821C7.24491 3.72353 7.28747 3.80866 7.28215 3.81398C7.29279 3.80334 7.20234 3.60116 7.26619 3.78738C7.33535 3.97892 7.39388 4.17046 7.43112 4.36731C7.44176 4.40988 7.44176 4.47373 7.45772 4.51097C7.43644 4.46308 7.43644 4.29815 7.44708 4.44712C7.47369 4.55885 7.47901 4.68123 7.47901 4.80892C7.48433 5.36757 7.96317 5.89962 8.54311 5.87302C9.11241 5.84642 9.61254 5.40482 9.60721 4.80892C9.58593 2.7552 8.29837 0.988787 6.39362 0.275837C4.58465 -0.399868 2.36599 0.20135 1.14227 1.6911C-0.150615 3.26597 -0.400679 5.51655 0.674065 7.28828C1.74349 9.04937 3.80253 9.90597 5.80836 9.51226C8.01106 9.08129 9.58593 7.02225 9.60721 4.81424C9.61254 4.25558 9.11241 3.72353 8.54311 3.75014C7.96317 3.77142 7.48433 4.21302 7.47901 4.80892Z" fill="#fbd7d8"/>
<path d="M4.81327 48.9479C6.88193 48.9479 8.55892 47.2709 8.55892 45.2023C8.55892 43.1336 6.88193 41.4566 4.81327 41.4566C2.74461 41.4566 1.06763 43.1336 1.06763 45.2023C1.06763 47.2709 2.74461 48.9479 4.81327 48.9479Z" fill="#fbd7d8"/>
<path d="M7.49488 45.2023C7.49488 45.3034 7.48955 45.3991 7.48423 45.5002C7.47891 45.5375 7.47891 45.5747 7.47359 45.612C7.46295 45.7609 7.51084 45.3991 7.48423 45.5428C7.44699 45.7184 7.41507 45.894 7.35654 46.0642C7.3459 46.0961 7.2927 46.3196 7.26077 46.3302C7.25013 46.3356 7.35654 46.1281 7.29802 46.2345C7.27673 46.277 7.25545 46.3196 7.23949 46.3622C7.15968 46.5165 7.06924 46.6654 6.97347 46.8091C6.97347 46.8144 6.90962 46.9155 6.89366 46.9208C6.89366 46.9208 7.06391 46.7186 6.9309 46.8676C6.8777 46.9261 6.82449 46.99 6.76596 47.0485C6.70744 47.107 6.65423 47.1656 6.59039 47.2188C6.55847 47.2507 6.52122 47.2773 6.48398 47.3092C6.36693 47.4156 6.53186 47.2933 6.53718 47.272C6.5159 47.3624 6.18071 47.5114 6.1009 47.5593C6.03173 47.5965 5.95725 47.6338 5.88276 47.671C5.74443 47.7455 5.93596 47.671 5.94661 47.6497C5.93596 47.6657 5.83487 47.6923 5.81359 47.7029C5.64866 47.7615 5.47308 47.8147 5.2975 47.8466C5.26026 47.8519 5.22834 47.8625 5.19109 47.8679C4.98359 47.9104 5.26026 47.8625 5.26026 47.8625C5.23898 47.8945 5.01552 47.8838 4.96763 47.8838C4.78141 47.8892 4.60052 47.8785 4.4143 47.8625C4.29192 47.8572 4.51539 47.8785 4.51539 47.8785C4.47814 47.8625 4.4143 47.8625 4.37173 47.8519C4.27596 47.8359 4.18551 47.8093 4.09507 47.7881C4.00462 47.7615 3.91417 47.7349 3.82372 47.7029C3.7918 47.6923 3.75987 47.6763 3.72263 47.6657C3.58962 47.6284 3.89821 47.7668 3.78116 47.6923C3.6375 47.5965 3.46725 47.5327 3.32359 47.4422C3.29167 47.4209 3.10545 47.3252 3.09481 47.2826C3.09481 47.272 3.25974 47.4263 3.17462 47.3411C3.14269 47.3092 3.10545 47.2826 3.06821 47.2507C2.94051 47.1336 2.82346 47.0059 2.70641 46.8783C2.56808 46.7293 2.74365 46.9315 2.74365 46.9315C2.72769 46.9261 2.66385 46.8197 2.66385 46.8197C2.61596 46.7506 2.5734 46.6867 2.53083 46.6175C2.48827 46.5484 2.45103 46.4792 2.40846 46.4047C2.38718 46.3622 2.3659 46.3196 2.34462 46.277C2.27013 46.1281 2.34994 46.3302 2.3659 46.3409C2.29141 46.309 2.22224 45.9152 2.20096 45.8354C2.17968 45.7556 2.16904 45.6705 2.14776 45.5907C2.12647 45.5056 2.16372 45.4417 2.15308 45.6599C2.15308 45.612 2.14244 45.5588 2.13712 45.5162C2.12115 45.33 2.12115 45.1438 2.13712 44.9629C2.13712 44.9256 2.14244 44.8884 2.14776 44.8511C2.16372 44.6383 2.14244 44.9203 2.13712 44.915C2.11583 44.9043 2.185 44.6702 2.19032 44.633C2.23288 44.4574 2.29673 44.2925 2.34994 44.1275C2.38718 44.0158 2.31801 44.2233 2.31269 44.218C2.30737 44.2127 2.3659 44.1063 2.37122 44.0903C2.41378 44.0052 2.45635 43.9254 2.50423 43.8456C2.55212 43.7657 2.6 43.6859 2.65321 43.6115C2.67449 43.5849 2.69577 43.5582 2.71173 43.5263C2.78622 43.4093 2.5734 43.67 2.67449 43.5795C2.80218 43.4625 2.90327 43.3188 3.03096 43.2018C3.06289 43.1699 3.10013 43.1432 3.13737 43.1113C3.2491 43.0102 3.09481 43.1113 3.08417 43.1486C3.09481 43.106 3.25442 43.0262 3.28103 43.0102C3.43 42.9145 3.57898 42.8347 3.73859 42.7548C3.91949 42.6591 3.67475 42.7761 3.67475 42.7761C3.68007 42.7655 3.80776 42.7229 3.80776 42.7229C3.88757 42.6963 3.96205 42.6697 4.04186 42.6484C4.12167 42.6272 4.20148 42.6059 4.2866 42.5846C4.33449 42.574 4.38237 42.5686 4.43026 42.558C4.57391 42.5314 4.41962 42.5686 4.36109 42.5633C4.54199 42.5793 4.73353 42.5314 4.91443 42.5367C4.99955 42.5367 5.08468 42.5473 5.16981 42.5527C5.26558 42.558 5.28686 42.6112 5.10596 42.542C5.14853 42.558 5.20173 42.558 5.24962 42.5686C5.44648 42.6059 5.63802 42.6697 5.82955 42.7336C5.88808 42.7549 5.97321 42.8293 5.8668 42.7442C5.75507 42.6538 5.88808 42.7549 5.93064 42.7761C6.01577 42.8187 6.09558 42.8613 6.17539 42.9091C6.2552 42.957 6.335 43.0049 6.40949 43.0581C6.41481 43.0581 6.5159 43.122 6.52122 43.1379C6.51058 43.09 6.34565 42.989 6.49462 43.122C6.63827 43.255 6.77661 43.3933 6.90962 43.5423C6.9575 43.5902 6.99475 43.5902 6.91494 43.5423C6.86173 43.4731 6.86173 43.4731 6.91494 43.5423C6.9309 43.5636 6.94154 43.5795 6.9575 43.6008C7.01071 43.6753 7.05859 43.7551 7.10648 43.8349C7.15968 43.9254 7.20757 44.0211 7.25545 44.1116C7.26077 44.1169 7.30334 44.202 7.29802 44.2074C7.30866 44.1967 7.21821 43.9945 7.28206 44.1808C7.35122 44.3723 7.40975 44.5638 7.44699 44.7607C7.45763 44.8032 7.45763 44.8671 7.47359 44.9043C7.45231 44.8565 7.45231 44.6915 7.46295 44.8405C7.48956 44.9575 7.49488 45.0799 7.49488 45.2023C7.5002 45.7609 7.97904 46.293 8.55898 46.2664C9.12827 46.2398 9.6284 45.7982 9.62308 45.2023C9.6018 43.1486 8.31424 41.3822 6.40949 40.6692C4.60052 39.9935 2.38186 40.5947 1.15814 42.0845C-0.134746 43.6593 -0.38481 45.9099 0.689935 47.6817C1.75936 49.4427 3.8184 50.2993 5.82423 49.9056C8.02693 49.4747 9.6018 47.4156 9.62308 45.2076C9.6284 44.649 9.12827 44.1169 8.55898 44.1435C7.97904 44.1648 7.5002 44.6064 7.49488 45.2023Z" fill="#fbd7d8"/>
</svg>
