<svg width="80" height="80" viewBox="0 0 80 80" fill="none" xmlns="http://www.w3.org/2000/svg">
<circle cx="40" cy="40" r="40" fill="#F3E8E2"/>
<path d="M54.1584 55.705L57.3351 20H22L22.0415 20.4633L25.1717 55.71L25.1982 56.0033L39.5339 60H39.7597L54.1285 56L54.1551 55.7067L54.1584 55.705ZM39.6983 27.7983H49.9655L49.6567 31.3983L39.5272 35.9183L39.6966 36.7317H49.2017L48.1074 49.3167L39.6617 51.6667L31.2194 49.32L30.6881 43.2933H34.1636L34.4426 46.3483L34.4692 46.645L39.592 48.0117H39.8128L44.8792 46.5983L44.9041 46.3033L45.3824 40.66L45.4206 40.2H30.3975L30.082 36.5783L40.5584 32.0767L40.3924 31.26H29.6319L29.3247 27.7933H39.6866L39.6983 27.7983Z" fill="#D34A51"/>
</svg>
