<svg width="80" height="80" viewBox="0 0 80 80" fill="none" xmlns="http://www.w3.org/2000/svg">
<circle cx="40" cy="40" r="40" fill="#F3E8E2"/>
<path fill-rule="evenodd" clip-rule="evenodd" d="M44.9534 20H37.9934V29.8867C36.955 29.6367 36.0934 29.5533 34.9667 29.5533C27.6933 29.5517 23 33.8417 23 40.455C23 47.3184 27.425 50.8934 35.925 50.9017C38.7634 50.9017 41.3884 50.6517 44.9534 50.0184V20V20ZM35.89 34.9617C36.75 34.9617 37.4234 35.045 38.2367 35.295V45.7084C37.2434 45.8334 36.6167 45.875 35.8467 45.875C32.28 45.875 30.3383 43.9717 30.3383 40.525C30.3383 36.9834 32.3717 34.9617 35.89 34.9617Z" fill="#D34A51"/>
<path d="M56.3341 45.3883V30.3583H49.3841V43.15C49.3841 48.795 49.0707 50.94 48.0757 52.7933C47.1257 54.605 45.6391 55.7933 42.5674 57.1366L49.0257 60C52.0974 58.5633 53.5841 57.2616 54.7124 55.2C55.9224 53.0533 56.3341 50.5633 56.3341 45.3883V45.3883Z" fill="#D34A51"/>
<path d="M55.6403 20H48.6836V26.655H55.6419V20H55.6403Z" fill="#D34A51"/>
</svg>
