<svg width="80" height="80" viewBox="0 0 80 80" fill="none" xmlns="http://www.w3.org/2000/svg">
<circle cx="40" cy="40" r="40" fill="#F3E8E2"/>
<path d="M39.8567 20C29.7 20 30.3333 24.4267 30.3333 24.4267L30.345 29.0133H40.035V30.39H26.5C26.5 30.39 20 29.6483 20 39.9483C20 50.2483 25.6717 49.8817 25.6717 49.8817H29.055V45.1033C29.055 45.1033 28.8733 39.4033 34.6383 39.4033H44.2483C44.2483 39.4033 49.6483 39.49 49.6483 34.1567V25.3367C49.6483 25.3367 50.4667 20 39.855 20H39.8567ZM34.5133 23.0833C35.4767 23.0833 36.2567 23.8667 36.2567 24.8367C36.2567 25.805 35.4767 26.5883 34.5133 26.5883C33.5483 26.5883 32.77 25.805 32.77 24.8367C32.77 23.8667 33.5483 23.0833 34.5133 23.0833Z" fill="#D34A51"/>
<path d="M40.1452 60C50.2986 60 49.6652 55.5733 49.6652 55.5733L49.6536 50.9867H39.9636V49.61H53.5019C53.5019 49.61 60.0019 50.3517 60.0019 40.0517C60.0019 29.7517 54.3286 30.1183 54.3286 30.1183H50.9452V34.8967C50.9452 34.8967 51.1269 40.5967 45.3619 40.5967H35.7536C35.7536 40.5967 30.3536 40.51 30.3536 45.8433V54.6633C30.3536 54.6633 29.5336 60 40.1452 60ZM45.4886 56.9167C44.5236 56.9167 43.7452 56.1333 43.7452 55.1633C43.7452 54.195 44.5236 53.4117 45.4886 53.4117C46.4519 53.4117 47.2319 54.195 47.2319 55.1633C47.2319 56.1333 46.4519 56.9167 45.4886 56.9167Z" fill="#D34A51"/>
</svg>
