<svg width="80" height="80" viewBox="0 0 80 80" fill="none" xmlns="http://www.w3.org/2000/svg">
<circle cx="40" cy="40" r="40" fill="#F3E8E2"/>
<path d="M62.9165 40.0047C62.9165 37.029 59.1903 34.2086 53.4765 32.4606C54.796 26.6383 54.2102 22.0044 51.6275 20.5203C51.0017 20.1698 50.2934 19.9934 49.5763 20.0094V22.0493C49.9974 22.0493 50.3361 22.1335 50.6206 22.2889C51.8652 23.0038 52.406 25.7212 51.9849 29.2191C51.8839 30.08 51.7192 30.9858 51.5171 31.9104C49.6037 31.4493 47.6617 31.116 45.7041 30.9128C44.5379 29.3039 43.2655 27.7746 41.8956 26.3351C44.8806 23.5615 47.6823 22.0418 49.5875 22.0418V20C47.0685 20 43.7727 21.7948 40.4395 24.9071C37.1082 21.8154 33.8106 20.0374 31.2934 20.0374V22.0774C33.1893 22.0774 36.0003 23.5896 38.9854 26.3445C37.7034 27.6919 36.4214 29.2191 35.203 30.9128C33.2413 31.1138 31.2959 31.4502 29.3807 31.9197C29.1692 31.0045 29.0139 30.1174 28.9035 29.2659C28.473 25.7662 29.0045 23.0487 30.2416 22.3263C30.5149 22.1616 30.8723 22.0867 31.2934 22.0867V20.0468C30.5261 20.0468 29.828 20.2115 29.2254 20.5577C26.652 22.0418 26.0756 26.6645 27.4025 32.4699C21.7075 34.2292 18 37.0383 18 40.0047C18 42.9804 21.7262 45.8008 27.4399 47.5469C26.1205 53.3711 26.7063 58.005 29.289 59.4872C29.8842 59.8353 30.5804 60 31.3477 60C33.8667 60 37.1625 58.2052 40.4957 55.0929C43.827 58.1865 47.1227 59.9626 49.6418 59.9626C50.3644 59.9778 51.0781 59.8009 51.7098 59.4498C54.2832 57.9675 54.8596 53.3449 53.5327 47.5394C59.209 45.7914 62.9165 42.971 62.9165 40.0047ZM50.9949 33.8979C50.6393 35.1216 50.2271 36.3282 49.7597 37.5137C48.9945 36.0254 48.1544 34.5768 47.2425 33.1736C48.5432 33.3664 49.7971 33.6041 50.9968 33.8979H50.9949ZM46.8027 43.6485C46.0896 44.8837 45.356 46.0572 44.5962 47.1464C41.8493 47.3885 39.0865 47.3916 36.339 47.1558C34.7631 44.9047 33.3849 42.5214 32.2198 40.0328C33.3831 37.5382 34.7555 35.1466 36.3222 32.8835C39.0684 32.6409 41.8306 32.6372 44.5775 32.8723C45.3373 33.9615 46.0803 35.1256 46.7933 36.3533C47.4895 37.5511 48.1221 38.7676 48.6985 39.9953C48.1157 41.2379 47.4833 42.4566 46.8027 43.6485V43.6485ZM49.7597 42.4582C50.2538 43.6841 50.6767 44.9118 51.023 46.1021C49.8252 46.3959 48.5601 46.643 47.2519 46.8339C48.16 45.4179 48.997 43.9575 49.7597 42.4582V42.4582ZM40.477 52.2276C39.6254 51.348 38.7739 50.3692 37.9317 49.2968C38.7552 49.3342 39.5973 49.3623 40.4489 49.3623C41.3098 49.3623 42.1613 49.3436 42.9942 49.2968C42.1707 50.3692 41.3191 51.348 40.477 52.2276ZM33.6646 46.8339C32.4027 46.651 31.15 46.41 29.9104 46.1114C30.2491 44.9305 30.6702 43.7122 31.1456 42.4957C31.5217 43.2256 31.9166 43.9592 32.3471 44.6928C32.7775 45.4246 33.2155 46.1395 33.6646 46.8339ZM40.4302 27.7818C41.2817 28.6614 42.1333 29.6402 42.9754 30.7126C42.152 30.6752 41.3098 30.6471 40.4582 30.6471C39.5973 30.6471 38.7458 30.6658 37.913 30.7126C38.7364 29.6402 39.588 28.6614 40.4302 27.7818ZM33.6553 33.1755C32.7473 34.5884 31.9104 36.0456 31.1474 37.5418C30.6668 36.3486 30.2452 35.1325 29.8842 33.8979C31.0819 33.6134 32.3471 33.3664 33.6553 33.1755ZM25.37 44.6367C22.1286 43.2555 20.0325 41.442 20.0325 40.0047C20.0325 38.5674 22.1286 36.7445 25.37 35.3727C26.1561 35.0339 27.017 34.7307 27.906 34.4481C28.4281 36.2411 29.115 38.1088 29.9646 40.0234C29.1624 41.8241 28.484 43.6775 27.934 45.5706C27.0646 45.3014 26.2089 44.9897 25.37 44.6367V44.6367ZM30.2959 57.7186C29.0513 57.0074 28.5105 54.2862 28.9315 50.7902C29.0326 49.9293 29.1973 49.0217 29.3994 48.0971C31.1923 48.5369 33.1518 48.8757 35.2124 49.0965C36.3787 50.7054 37.651 52.2348 39.0209 53.6743C36.0358 56.4479 33.2342 57.9675 31.329 57.9675C30.9695 57.9715 30.6147 57.8866 30.2959 57.7205V57.7186ZM52.013 50.7435C52.4435 54.2413 51.9119 56.9607 50.6749 57.6831C50.4016 57.8478 50.0442 57.9207 49.6231 57.9207C47.7272 57.9207 44.9162 56.4104 41.9311 53.6537C43.2131 52.3099 44.4951 50.7809 45.7135 49.0872C47.6751 48.8862 49.6205 48.5498 51.5358 48.0803C51.7473 49.0048 51.9101 49.8919 52.013 50.7435V50.7435ZM55.5371 44.6367C54.751 44.9754 53.8901 45.2786 53.0012 45.5612C52.4415 43.6585 51.7537 41.7958 50.9425 39.986C51.7847 38.0826 52.4603 36.2242 52.9731 34.4388C53.8808 34.7214 54.7398 35.0339 55.5464 35.3727C58.7879 36.7538 60.884 38.5674 60.884 40.0047C60.8747 41.442 58.7786 43.2649 55.5371 44.6367V44.6367Z" fill="#D34A51"/>
<path d="M40.4484 44.1894C41.5582 44.1894 42.6226 43.7485 43.4074 42.9637C44.1922 42.1789 44.6331 41.1145 44.6331 40.0047C44.6331 38.8948 44.1922 37.8304 43.4074 37.0456C42.6226 36.2608 41.5582 35.8199 40.4484 35.8199C39.3385 35.8199 38.2741 36.2608 37.4893 37.0456C36.7046 37.8304 36.2637 38.8948 36.2637 40.0047C36.2637 41.1145 36.7046 42.1789 37.4893 42.9637C38.2741 43.7485 39.3385 44.1894 40.4484 44.1894V44.1894Z" fill="#D34A51"/>
</svg>
